<svg width="162" height="24" viewBox="0 0 162 24" fill="none" xmlns="http://www.w3.org/2000/svg">
<path d="M2.49654 0.378912C2.05506 -0.0135197 1.42436 -0.110313 0.885515 0.131666C0.346666 0.373645 0 0.909337 0 1.50002V19.5C0 21.9853 2.01472 24 4.5 24H19.5C20.3284 24 21 23.3284 21 22.5C21 21.6716 20.3284 21 19.5 21H4.5C3.67157 21 3 20.3284 3 19.5V4.84029L14.0034 14.6211C14.5718 15.1263 15.4282 15.1263 15.9965 14.6211L27 4.84029V13.5C27 14.3284 27.6715 15 28.5 15C29.3284 15 30 14.3284 30 13.5V1.50002C30 0.671598 29.3284 2.61757e-05 28.5 2.61757e-05H16.5C15.6716 2.61757e-05 15 0.671598 15 1.50002C15 2.32845 15.6716 3.00002 16.5 3.00002H24.5547L15 11.4931L2.49654 0.378912Z" fill="black"/>
<path d="M89.0183 19.28H86.2734V7.63302H89.0183V19.28Z" fill="black"/>
<path d="M89.2382 4.49379C89.2382 5.31272 88.5255 5.97999 87.6535 5.97999C86.7739 5.97999 86.0611 5.31272 86.0611 4.49379C86.0611 3.66727 86.7739 3 87.6535 3C88.5255 3 89.2382 3.66727 89.2382 4.49379Z" fill="black"/>
<path d="M52.1608 19.28H42V3.75068H52.1001V6.1089H44.8131V10.3249H51.5769V12.6831H44.8131V16.9218H52.1608V19.28Z" fill="black"/>
<path d="M57.5938 19.28H54.8488V7.63302H57.4724V9.6121H57.6089C58.0942 8.28513 59.262 7.48137 60.824 7.48137C62.3936 7.48137 63.5234 8.29272 63.9708 9.6121H64.0921C64.6078 8.31546 65.8968 7.48137 67.5878 7.48137C69.7261 7.48137 71.2274 8.86142 71.2274 11.4623V19.28H68.4749V11.8869C68.4749 10.4462 67.5953 9.79409 66.4883 9.79409C65.1613 9.79409 64.3803 10.704 64.3803 12.0158V19.28H61.6884V11.7732C61.6884 10.5751 60.8922 9.79409 59.7321 9.79409C58.5492 9.79409 57.5938 10.7647 57.5938 12.1978V19.28Z" fill="black"/>
<path fill-rule="evenodd" clip-rule="evenodd" d="M77.3637 19.5151C79.1912 19.5151 80.2831 18.6583 80.7835 17.6801H80.8745V19.28H83.5133V11.485C83.5133 8.40646 81.0034 7.48137 78.7817 7.48137C76.3325 7.48137 74.452 8.57328 73.8454 10.6964L76.4083 11.0604C76.6813 10.2642 77.4547 9.58177 78.7969 9.58177C80.0708 9.58177 80.7684 10.2339 80.7684 11.3789V11.4244C80.7684 12.1666 80.0362 12.2438 78.2369 12.4337L77.8869 12.4708C75.6273 12.7134 73.4662 13.3883 73.4662 16.0119C73.4662 18.3019 75.142 19.5151 77.3637 19.5151ZM78.0765 17.4981C76.9315 17.4981 76.1126 16.9749 76.1126 15.9664C76.1126 14.9124 77.0301 14.4726 78.2585 14.2982L78.3806 14.2816C79.1306 14.1798 80.4387 14.0022 80.7759 13.7295V15.102C80.7759 16.3986 79.7295 17.4981 78.0765 17.4981Z" fill="black"/>
<path d="M94.5859 3.75068H91.841V19.28H94.5859V3.75068Z" fill="black"/>
<path d="M102.826 19.28V3.75068H106.269L110.879 15.0034H111.061L115.671 3.75068H119.114V19.28H116.415V8.61119H116.271L111.979 19.2345H109.962L105.67 8.58844H105.526V19.28H102.826Z" fill="black"/>
<path fill-rule="evenodd" clip-rule="evenodd" d="M127.212 19.5075C129.927 19.5075 131.792 18.1805 132.278 16.156L129.715 15.8678C129.343 16.8536 128.433 17.3692 127.25 17.3692C125.476 17.3692 124.301 16.2015 124.278 14.2072H132.391V13.3655C132.391 9.27847 129.935 7.48137 127.068 7.48137C123.732 7.48137 121.556 9.93058 121.556 13.5248C121.556 17.1796 123.702 19.5075 127.212 19.5075ZM124.285 12.357C124.369 10.8708 125.468 9.61969 127.106 9.61969C128.683 9.61969 129.745 10.7723 129.76 12.357H124.285Z" fill="black"/>
<path d="M138.232 7.63302H140.529V9.75618H138.232V15.7768C138.232 16.8839 138.785 17.1266 139.475 17.1266C139.817 17.1266 140.128 17.0583 140.279 17.0204L140.742 19.1663C140.446 19.2649 139.908 19.4165 139.127 19.4393C137.064 19.4999 135.472 18.4232 135.487 16.2318V9.75618H133.834V7.63302H135.487V4.84259H138.232V7.63302Z" fill="black"/>
<path fill-rule="evenodd" clip-rule="evenodd" d="M147.856 19.5075C150.571 19.5075 152.436 18.1805 152.921 16.156L150.359 15.8678C149.987 16.8536 149.077 17.3692 147.894 17.3692C146.12 17.3692 144.944 16.2015 144.922 14.2072H153.035V13.3655C153.035 9.27847 150.578 7.48137 147.712 7.48137C144.376 7.48137 142.2 9.93058 142.2 13.5248C142.2 17.1796 144.345 19.5075 147.856 19.5075ZM144.929 12.357C145.013 10.8708 146.112 9.61969 147.75 9.61969C149.327 9.61969 150.389 10.7723 150.404 12.357H144.929Z" fill="black"/>
<path d="M158.102 19.28H155.357V7.63302H158.019V9.57419H158.14C158.565 8.22447 159.68 7.4662 161.014 7.4662C161.317 7.4662 161.75 7.49653 162 7.54203V10.0671C161.765 9.99124 161.188 9.90783 160.726 9.90783C159.217 9.90783 158.102 10.9542 158.102 12.4329V19.28Z" fill="black"/>
</svg>
