<svg width="100" height="83" viewBox="0 0 45 100" fill="none" xmlns="http://www.w3.org/2000/svg">
<path d="M55.8892 21.1026L57.7657 21.9231H61.9879L60.1114 23.9744C59.6422 24.9316 59.5484 27.0103 62.9261 27.6667C67.1483 28.4872 70.9013 29.7179 69.9631 29.7179C69.0248 29.7179 67.1483 30.9487 67.1483 32.5897C67.1483 33.9026 64.3335 38.6068 62.9261 40.7949L53.5436 39.5641C57.9221 41.6154 67.0545 45.8 68.5557 46.1282C70.4322 46.5385 77 51.8718 77 52.6923C77 53.5128 75.5926 56.7949 58.704 60.0769C52.1362 62.9487 57.7657 66.2308 57.7657 69.1026C57.7657 71.4 51.1979 74.1624 47.914 75.2564C44.4737 73.3419 37.124 69.2667 35.2475 68.2821C32.9019 67.0513 28.6797 72.3846 28.2106 75.2564C27.8353 77.5538 22.1119 80.0427 19.2971 81C17.4206 79.359 12.0726 74.518 5.6924 68.2821C-2.28279 60.4872 3.34676 71.9744 2.4085 75.2564C1.65789 77.882 0.219215 80.1795 -0.406297 81V66.2308C-0.406297 63.2601 -0.338535 61.4944 -0.247618 60.5044C-0.296005 60.3861 -0.348803 60.2445 -0.406297 60.0769C-1.81368 55.9744 -4.62844 53.5128 -4.62844 52.6923C-4.62844 52.0359 -5.56669 51.8718 -6.03582 51.8718C-7.28683 52.0085 -10.258 52.2 -12.1345 51.8718C-14.4801 51.4615 -13.5419 49.4103 -13.5419 43.2564C-13.5419 41.6154 -10.7271 43.6667 -8.85062 43.2564C-6.97412 42.8462 -4.62844 41.6154 -4.62844 40.7949C-4.62844 39.9744 -4.62844 38.3333 -12.1345 37.1026C-18.2332 36.6923 -14.9493 36.6923 -15.8876 34.2308C-16.8258 31.7692 -11.6654 30.9487 -8.85062 30.9487C-6.03584 30.9487 -3.6902 30.1282 -0.406297 29.7179C2.22083 29.3897 1.6266 27.6667 1.00109 26.8462L-0.406297 21.1026C-1.18817 20.5556 -3.12722 19.4615 -4.62844 19.4615C-6.12965 19.4615 -6.1922 17.2735 -6.03582 16.1795H2.4085C4.28502 16.1795 6.63066 15.0855 7.56892 14.5385V11.2564L4.28502 7.15385H8.50718L5.6924 3.87179L11.7911 2.64103C12.4166 3.46154 14.512 5.92308 17.8898 9.20513C21.2675 12.4872 22.7374 10.5726 23.0502 9.20513L24.9267 5.10256L27.2723 7.15385L25.8649 14.5385L27.2723 18.2308H31.4945V16.1795L32.9019 12.4872L35.2475 11.2564L39.4697 12.4872L45.0992 5.10256V3.87179L46.5066 2.64103H47.914V3.87179H50.7288L53.5436 2.64103L54.9509 1H60.1114V3.87179V7.15385L57.7657 9.20513L52.1362 12.4872L50.7288 14.5385V16.1795L51.667 18.2308L53.5436 19.4615L55.8892 21.1026Z" fill="#2F9535"/>
<path d="M62.9261 21.9231H61.9879M61.9879 21.9231H57.7657L55.8892 21.1026L53.5436 19.4615L51.667 18.2308L50.7288 16.1795V14.5385L52.1362 12.4872L57.7657 9.20513L60.1114 7.15385V3.87179V1H54.9509L53.5436 2.64103L50.7288 3.87179H47.914V2.64103H46.5066L45.0992 3.87179V5.10256L39.4697 12.4872L35.2475 11.2564L32.9019 12.4872L31.4945 16.1795V18.2308H27.2723L25.8649 14.5385L27.2723 7.15385L24.9267 5.10256L23.0502 9.20513C22.7374 10.5726 21.2675 12.4872 17.8898 9.20513C14.512 5.92308 12.4166 3.46154 11.7911 2.64103L5.6924 3.87179L8.50717 7.15385H4.28501L7.56892 11.2564V14.5385C6.63066 15.0855 4.28501 16.1795 2.4085 16.1795C0.531983 16.1795 -4.00293 16.1795 -6.03582 16.1795C-6.1922 17.2735 -6.12965 19.4615 -4.62844 19.4615C-3.12722 19.4615 -1.18817 20.5556 -0.406297 21.1026L1.00109 26.8462C1.6266 27.6667 2.22083 29.3897 -0.406297 29.7179C-3.6902 30.1282 -6.03584 30.9487 -8.85062 30.9487C-11.6654 30.9487 -16.8258 31.7692 -15.8876 34.2308C-14.9493 36.6923 -18.2332 36.6923 -12.1345 37.1026C-4.62844 38.3333 -4.62844 39.9744 -4.62844 40.7949C-4.62844 41.6154 -6.97412 42.8462 -8.85062 43.2564C-10.7271 43.6667 -13.5419 41.6154 -13.5419 43.2564C-13.5419 49.4103 -14.4801 51.4615 -12.1345 51.8718C-10.258 52.2 -7.28683 52.0085 -6.03582 51.8718C-5.56669 51.8718 -4.62844 52.0359 -4.62844 52.6923C-4.62844 53.5128 -1.81368 55.9744 -0.406297 60.0769C1.00109 64.1795 -0.406297 52.6923 -0.406297 66.2308C-0.406297 77.0615 -0.406297 80.5897 -0.406297 81C0.219215 80.1795 1.65789 77.8821 2.4085 75.2564C3.34676 71.9744 -2.28279 60.4872 5.6924 68.2821C12.0726 74.5179 17.4206 79.359 19.2971 81C22.1119 80.0427 27.8353 77.5538 28.2106 75.2564C28.6797 72.3846 32.9019 67.0513 35.2475 68.2821C37.124 69.2667 44.4737 73.3419 47.914 75.2564C51.1979 74.1624 57.7657 71.4 57.7657 69.1026C57.7657 66.2308 52.1362 62.9487 58.704 60.0769C75.5926 56.7949 77 53.5128 77 52.6923C77 51.8718 70.4322 46.5385 68.5557 46.1282C67.0545 45.8 57.9221 41.6154 53.5436 39.5641L62.9261 40.7949C64.3335 38.6068 67.1483 33.9026 67.1483 32.5897C67.1483 30.9487 69.0248 29.7179 69.9631 29.7179C70.9013 29.7179 67.1483 28.4872 62.9261 27.6667C59.5484 27.0103 59.6422 24.9316 60.1114 23.9744L61.9879 21.9231Z" stroke="#2F9535"/>
</svg>
