<svg width="85" height="90" viewBox="0 0 85 90" fill="none" xmlns="http://www.w3.org/2000/svg">
<path d="M36.7139 13.3083L38.2053 11.9047L39.8631 8.02156L41.0129 10.5528C41.7091 11.3601 43.5839 12.2625 45.5138 9.41374C47.9262 5.85278 50.5317 2.88436 50.1633 3.74728C49.7949 4.61019 50.1901 6.81925 51.6993 7.46356C52.9067 7.97901 56.1281 12.4148 57.5878 14.5682L52.772 22.7141C56.3777 19.4926 63.8119 12.7366 64.7032 11.4848C65.8173 9.92001 73.301 5.97363 74.0556 6.29578C74.8103 6.61794 77.2762 9.20093 73.6637 26.022C73.7262 33.1899 78.955 29.3011 81.5962 30.4286C83.7091 31.3307 83.671 38.4556 83.3878 41.9054C80.2763 44.3177 73.6426 49.4772 72.0003 50.8164C69.9474 52.4905 73.1947 58.4676 75.6517 60.0266C77.6173 61.2738 77.6592 67.5148 77.4344 70.4793C75.1884 71.5609 68.6363 74.5787 60.3962 77.9982C50.096 82.2725 62.871 81.6052 65.5211 83.7567C67.6412 85.4779 69.1893 87.7031 69.6983 88.6005L56.1151 82.8017C53.383 81.6354 51.7857 80.8798 50.9109 80.4075C50.7831 80.4055 50.6321 80.3985 50.4554 80.3856C46.1297 80.0692 42.7607 81.6914 42.0061 81.3693C41.4024 81.1115 40.8831 81.91 40.6989 82.3415C40.3335 83.5457 39.343 86.3535 38.3044 87.9504C37.0061 89.9466 35.4879 88.2783 29.8282 85.8622C28.319 85.2178 31.3107 83.4345 31.6702 81.5476C32.0296 79.6607 31.8187 77.0202 31.064 76.698C30.3094 76.3759 28.8002 75.7315 24.7211 82.1516C21.9493 87.5995 23.2387 84.5793 20.6064 84.4757C17.9742 84.3722 19.2457 79.304 20.3508 76.7153C21.456 74.1265 21.6223 71.6471 22.5343 68.4658C23.264 65.9208 21.446 65.7908 20.4457 66.0439L14.6108 65.0832C13.8007 65.5875 12.0332 66.9413 11.4438 68.322C10.8544 69.7026 8.81751 68.9011 7.87275 68.3277L11.1882 60.5615C11.925 58.8357 11.8398 56.2488 11.7051 55.1712L8.6866 53.8825L3.62413 55.2919L5.28186 51.4088L1.15821 52.709L2.42078 46.6168C3.421 46.3637 6.50759 45.403 10.8523 43.5851C15.197 41.7672 14.0133 39.6636 12.8784 38.8391L9.84205 35.5025L12.6496 34.1506L18.8886 38.3443L22.837 38.4997L24.4947 34.6166L22.6082 33.8112L19.7649 31.0671L19.554 28.4266L22.3436 25.0267L17.7623 16.9498L16.6304 16.4666L16.051 14.689L16.6036 13.3946L17.7356 13.8778L18.8407 11.2891L18.8139 8.21712L17.8573 6.27844L19.8834 1.53242L22.5246 2.65996L25.5431 3.94859L26.5087 6.91126L27.3168 13.3774L28.6508 15.4771L30.1601 16.1214L32.415 16.0639L34.2837 14.8213L36.7139 13.3083Z" fill="#2F9535"/>
<path d="M40.2315 7.15865L39.8631 8.02156M39.8631 8.02156L38.2053 11.9047L36.7139 13.3083L34.2837 14.8213L32.415 16.0639L30.1601 16.1214L28.6508 15.4771L27.3168 13.3774L26.5087 6.91126L25.5431 3.94859L22.5246 2.65996L19.8834 1.53242L17.8573 6.27844L18.8139 8.21712L18.8407 11.2891L17.7356 13.8778L16.6036 13.3946L16.051 14.689L16.6304 16.4666L17.7623 16.9498L22.3436 25.0267L19.554 28.4266L19.7649 31.0671L22.6082 33.8112L24.4947 34.6166L22.837 38.4997L18.8886 38.3443L12.6496 34.1506L9.84205 35.5025L12.8784 38.8391C14.0133 39.6636 15.197 41.7672 10.8523 43.5851C6.50759 45.403 3.421 46.3637 2.42078 46.6168L1.15821 52.709L5.28186 51.4088L3.62413 55.2919L8.6866 53.8825L11.7051 55.1712C11.8398 56.2488 11.925 58.8357 11.1882 60.5615C10.4514 62.2873 8.67092 66.4581 7.87275 68.3277C8.81751 68.9011 10.8544 69.7026 11.4438 68.322C12.0332 66.9413 13.8007 65.5875 14.6108 65.0832L20.4457 66.0439C21.446 65.7908 23.264 65.9208 22.5343 68.4658C21.6223 71.6471 21.456 74.1265 20.3508 76.7153C19.2457 79.304 17.9742 84.3722 20.6064 84.4757C23.2387 84.5793 21.9493 87.5995 24.7211 82.1516C28.8002 75.7315 30.3094 76.3759 31.064 76.698C31.8187 77.0202 32.0296 79.6607 31.6702 81.5476C31.3107 83.4345 28.319 85.2178 29.8282 85.8622C35.4879 88.2783 37.0061 89.9466 38.3044 87.9504C39.343 86.3535 40.3335 83.5457 40.6989 82.3415C40.8831 81.91 41.4024 81.1115 42.0061 81.3693C42.7607 81.6914 46.1297 80.0692 50.4554 80.3856C54.7811 80.702 43.6638 77.4862 56.1151 82.8017C66.0761 87.0542 69.321 88.4395 69.6983 88.6005C69.1893 87.7031 67.6412 85.4779 65.5211 83.7567C62.871 81.6052 50.096 82.2725 60.3962 77.9982C68.6363 74.5787 75.1884 71.5609 77.4344 70.4793C77.6592 67.5148 77.6173 61.2738 75.6517 60.0266C73.1947 58.4676 69.9474 52.4905 72.0003 50.8164C73.6426 49.4772 80.2763 44.3177 83.3878 41.9054C83.671 38.4556 83.7091 31.3307 81.5962 30.4286C78.955 29.3011 73.7262 33.1899 73.6637 26.022C77.2762 9.20093 74.8103 6.61794 74.0556 6.29578C73.301 5.97363 65.8173 9.92001 64.7032 11.4848C63.8119 12.7366 56.3777 19.4926 52.772 22.7141L57.5878 14.5682C56.1281 12.4148 52.9067 7.97901 51.6993 7.46356C50.1901 6.81925 49.7949 4.61019 50.1633 3.74727C50.5317 2.88436 47.9262 5.85278 45.5138 9.41374C43.5839 12.2625 41.7091 11.3601 41.0129 10.5528L39.8631 8.02156Z" stroke="#2F9535"/>
</svg>
